<?xml version="1.0" encoding="UTF-8" standalone="no"?>
<!-- Created with Inkscape (http://www.inkscape.org/) -->

<svg
   xmlns:dc="http://purl.org/dc/elements/1.1/"
   xmlns:cc="http://creativecommons.org/ns#"
   xmlns:rdf="http://www.w3.org/1999/02/22-rdf-syntax-ns#"
   xmlns:svg="http://www.w3.org/2000/svg"
   xmlns="http://www.w3.org/2000/svg"
   xmlns:sodipodi="http://sodipodi.sourceforge.net/DTD/sodipodi-0.dtd"
   xmlns:inkscape="http://www.inkscape.org/namespaces/inkscape"
   width="1024"
   height="1024"
   viewBox="0 0 1024 1024"
   id="svg2"
   version="1.1"
   inkscape:version="0.91 r13725"
   sodipodi:docname="vinyl_animation.svg">
  <defs
     id="defs4" />
  <sodipodi:namedview
     id="base"
     pagecolor="#ffffff"
     bordercolor="#666666"
     borderopacity="1.0"
     inkscape:pageopacity="0.0"
     inkscape:pageshadow="2"
     inkscape:zoom="0.175"
     inkscape:cx="1790.3017"
     inkscape:cy="-19.078824"
     inkscape:document-units="px"
     inkscape:current-layer="layer1"
     showgrid="false"
     inkscape:window-width="1920"
     inkscape:window-height="1017"
     inkscape:window-x="-8"
     inkscape:window-y="-8"
     inkscape:window-maximized="1"
     units="px"
     fit-margin-top="0"
     fit-margin-left="0"
     fit-margin-right="0"
     fit-margin-bottom="0" />
  <metadata
     id="metadata7">
    <rdf:RDF>
      <cc:Work
         rdf:about="">
        <dc:format>image/svg+xml</dc:format>
        <dc:type
           rdf:resource="http://purl.org/dc/dcmitype/StillImage" />
        <dc:title></dc:title>
      </cc:Work>
    </rdf:RDF>
  </metadata>
  <g
     inkscape:label="Layer 1"
     inkscape:groupmode="layer"
     id="layer1"
     transform="translate(3552,11.066436)">
    <path
       inkscape:connector-curvature="0"
       style="opacity:1;fill:#202020;fill-opacity:1;stroke:none;stroke-width:2.83464575;stroke-linecap:butt;stroke-linejoin:miter;stroke-miterlimit:4;stroke-dasharray:none;stroke-opacity:1"
       d="m -3040,-11.066436 a 512,512 0 0 0 -512,511.999996 512,512 0 0 0 512,512.00004 512,512 0 0 0 512,-512.00004 512,512 0 0 0 -512,-511.999996 z m 0,488.570316 a 23.42857,23.42857 0 0 1 23.4277,23.42968 A 23.42857,23.42857 0 0 1 -3040,524.3613 23.42857,23.42857 0 0 1 -3063.4297,500.93356 23.42857,23.42857 0 0 1 -3040,477.50388 Z"
       id="path4136-9" />
    <path
       inkscape:connector-curvature="0"
       style="opacity:0.13999999;fill:#ffffff;fill-opacity:1;stroke:none;stroke-width:2.83464575;stroke-linecap:butt;stroke-linejoin:miter;stroke-miterlimit:4;stroke-dasharray:none;stroke-opacity:1"
       d="m -2872.6426,533.18161 a 170.57143,170.57143 0 0 1 -120.3008,131.55861 l 172.1621,298.19339 a 512,512 0 0 0 248.877,-256.12109 l -300.7383,-173.63091 z"
       id="rect4237-0" />
    <path
       inkscape:connector-curvature="0"
       style="opacity:1;fill:#8ac249;fill-opacity:1;stroke:none;stroke-width:2.83464575;stroke-linecap:butt;stroke-linejoin:miter;stroke-miterlimit:4;stroke-dasharray:none;stroke-opacity:1"
       d="m -3039.999,330.36227 a 170.57143,170.57143 0 0 0 -170.5723,170.57226 170.57143,170.57143 0 0 0 170.5723,170.57029 170.57143,170.57143 0 0 0 170.5703,-170.57029 170.57143,170.57143 0 0 0 -170.5703,-170.57226 z m 0,147.14258 a 23.42857,23.42857 0 0 1 23.4277,23.42968 23.42857,23.42857 0 0 1 -23.4277,23.42774 23.42857,23.42857 0 0 1 -23.4297,-23.42774 23.42857,23.42857 0 0 1 23.4297,-23.42968 z"
       id="path4136-1-9-1" />
    <path
       inkscape:connector-curvature="0"
       style="opacity:0.13999999;fill:#ffffff;fill-opacity:1;stroke:none;stroke-width:2.83464575;stroke-linecap:butt;stroke-linejoin:miter;stroke-miterlimit:4;stroke-dasharray:none;stroke-opacity:1"
       d="m -3207.4954,468.37945 a 170.57143,170.57143 0 0 1 120.3008,-131.5585 L -3259.3567,38.627554 a 512,512 0 0 0 -248.877,256.121096 l 300.7383,173.6308 z"
       id="rect4237-7-7" />
  </g>
</svg>
