<?xml version="1.0" encoding="UTF-8" standalone="no"?>
<!-- Created with Inkscape (http://www.inkscape.org/) -->

<svg
   xmlns:dc="http://purl.org/dc/elements/1.1/"
   xmlns:cc="http://creativecommons.org/ns#"
   xmlns:rdf="http://www.w3.org/1999/02/22-rdf-syntax-ns#"
   xmlns:svg="http://www.w3.org/2000/svg"
   xmlns="http://www.w3.org/2000/svg"
   xmlns:sodipodi="http://sodipodi.sourceforge.net/DTD/sodipodi-0.dtd"
   xmlns:inkscape="http://www.inkscape.org/namespaces/inkscape"
   width="512"
   height="512"
   viewBox="0 0 511.99998 512"
   id="svg4762"
   version="1.1"
   inkscape:version="0.91 r13725"
   sodipodi:docname="launcher.svg"
   inkscape:export-filename="C:\Users\benja\git\launchowl\Vinyl-Pi\media\app_launcher\launcher.png"
   inkscape:export-xdpi="300.05859"
   inkscape:export-ydpi="300.05859">
  <defs
     id="defs4764" />
  <sodipodi:namedview
     id="base"
     pagecolor="#ffffff"
     bordercolor="#666666"
     borderopacity="1.0"
     inkscape:pageopacity="0.0"
     inkscape:pageshadow="2"
     inkscape:zoom="0.175"
     inkscape:cx="2329.6821"
     inkscape:cy="819.86283"
     inkscape:document-units="px"
     inkscape:current-layer="layer1"
     showgrid="false"
     fit-margin-top="0"
     fit-margin-left="0"
     fit-margin-right="0"
     fit-margin-bottom="0"
     units="px"
     inkscape:window-width="1920"
     inkscape:window-height="1017"
     inkscape:window-x="-8"
     inkscape:window-y="-8"
     inkscape:window-maximized="1" />
  <metadata
     id="metadata4767">
    <rdf:RDF>
      <cc:Work
         rdf:about="">
        <dc:format>image/svg+xml</dc:format>
        <dc:type
           rdf:resource="http://purl.org/dc/dcmitype/StillImage" />
        <dc:title></dc:title>
      </cc:Work>
    </rdf:RDF>
  </metadata>
  <g
     inkscape:label="Layer 1"
     inkscape:groupmode="layer"
     id="layer1"
     transform="translate(1085.5833,-243.1699)">
    <g
       id="g4738"
       transform="matrix(0.49461212,0,0,0.49461212,-548.64066,378.89513)">
      <path
         id="rect4237"
         d="m -412.91764,280.14352 a 168.89129,168.89129 0 0 1 -119.11583,130.26273 l 170.4663,295.25614 a 506.95677,506.95677 0 0 0 246.42553,-253.59828 l -297.776,-171.92059 z"
         style="opacity:0.13999999;fill:#ffffff;fill-opacity:1;stroke:none;stroke-width:2.83464575;stroke-linecap:butt;stroke-linejoin:miter;stroke-miterlimit:4;stroke-dasharray:none;stroke-opacity:1"
         inkscape:connector-curvature="0" />
      <path
         inkscape:connector-curvature="0"
         id="path4136"
         d="M -578.62655,-258.74365 A 506.95677,506.95677 0 0 0 -1085.5833,248.21312 506.95677,506.95677 0 0 0 -578.62655,755.16989 506.95677,506.95677 0 0 0 -71.669795,248.21312 506.95677,506.95677 0 0 0 -93.59427,101.20873 L -556.17995,242.4308 a 23.197797,23.197797 0 0 1 0.75033,5.78232 23.197797,23.197797 0 0 1 -23.19693,23.19697 23.197797,23.197797 0 0 1 -23.19892,-23.19697 23.197797,23.197797 0 0 1 23.19892,-23.1989 23.197797,23.197797 0 0 1 9.10472,1.8662 l 164.27201,-454.60066 a 506.95677,506.95677 0 0 0 -173.37673,-31.02341 z"
         style="opacity:1;fill:#202020;fill-opacity:1;stroke:none;stroke-width:2.83464575;stroke-linecap:butt;stroke-linejoin:miter;stroke-miterlimit:4;stroke-dasharray:none;stroke-opacity:1" />
      <path
         inkscape:connector-curvature="0"
         id="path4136-1-9"
         d="m -578.62467,79.321004 a 168.89129,168.89129 0 0 0 -168.89206,168.892116 168.89129,168.89129 0 0 0 168.89206,168.89019 168.89129,168.89129 0 0 0 168.89027,-168.89019 168.89129,168.89129 0 0 0 -7.11096,-48.21179 l -139.31143,42.53003 a 23.197797,23.197797 0 0 1 0.72915,5.68176 23.197797,23.197797 0 0 1 -23.19703,23.19697 23.197797,23.197797 0 0 1 -23.19882,-23.19697 23.197797,23.197797 0 0 1 23.19882,-23.1989 23.197797,23.197797 0 0 1 9.40256,2.01124 l 49.50175,-136.986856 a 168.89129,168.89129 0 0 0 -58.90431,-10.7176 z"
         style="opacity:1;fill:#8ac249;fill-opacity:1;stroke:none;stroke-width:2.83464575;stroke-linecap:butt;stroke-linejoin:miter;stroke-miterlimit:4;stroke-dasharray:none;stroke-opacity:1" />
      <path
         id="rect4237-7"
         d="M -744.47212,215.97967 A 168.89129,168.89129 0 0 1 -625.35629,85.717026 L -795.82258,-209.53915 A 506.95677,506.95677 0 0 0 -1042.2481,44.059141 l 297.77598,171.920529 z"
         style="opacity:0.13999999;fill:#ffffff;fill-opacity:1;stroke:none;stroke-width:2.83464575;stroke-linecap:butt;stroke-linejoin:miter;stroke-miterlimit:4;stroke-dasharray:none;stroke-opacity:1"
         inkscape:connector-curvature="0" />
      <path
         id="path4136-0"
         d="m -363.43598,-268.83011 -164.25855,454.5639 a 23.197797,23.197797 0 0 1 14.63768,17.40691 L -50.428723,61.90703 A 506.95677,506.95677 0 0 0 -363.43598,-268.83011 Z"
         style="opacity:1;fill:#202020;fill-opacity:1;stroke:none;stroke-width:2.83464575;stroke-linecap:butt;stroke-linejoin:miter;stroke-miterlimit:4;stroke-dasharray:none;stroke-opacity:1"
         inkscape:connector-curvature="0" />
      <path
         id="path4136-1-9-6"
         d="m -478.54279,49.428497 -49.47463,136.913363 a 23.197797,23.197797 0 0 1 14.63957,17.40499 l 139.35192,-42.54164 A 168.89129,168.89129 0 0 0 -478.54279,49.428497 Z"
         style="opacity:1;fill:#8ac249;fill-opacity:1;stroke:none;stroke-width:2.83464575;stroke-linecap:butt;stroke-linejoin:miter;stroke-miterlimit:4;stroke-dasharray:none;stroke-opacity:1"
         inkscape:connector-curvature="0" />
      <path
         id="rect4237-7-3"
         d="M -412.76951,279.21887 A 168.89129,168.89129 0 0 1 -531.88534,409.4815 l 170.46629,295.25621 a 506.95677,506.95677 0 0 0 246.42564,-253.59832 l -297.7761,-171.92052 z"
         style="opacity:0.13999999;fill:#ffffff;fill-opacity:1;stroke:none;stroke-width:2.83464575;stroke-linecap:butt;stroke-linejoin:miter;stroke-miterlimit:4;stroke-dasharray:none;stroke-opacity:1"
         inkscape:connector-curvature="0" />
    </g>
  </g>
</svg>
